<svg id="图层_1" data-name="图层 1" xmlns="http://www.w3.org/2000/svg" viewBox="0 0 74.05 58.76"><defs><style>.cls-1,.cls-4{fill:#2ed8ff;}.cls-1,.cls-2,.cls-3,.cls-4{stroke:#000;stroke-miterlimit:10;}.cls-1,.cls-3{stroke-width:1.95px;}.cls-2,.cls-3{fill:#fff;}.cls-2{stroke-width:1.42px;}.cls-4{stroke-width:1.73px;}</style></defs><title>go-chat</title><path class="cls-1" d="M17.93,33.25C28.84,17.46,60.93,18,74.6,33c6.93,7.6,9.86,19.7,4.7,29.48-7,13.33-27.64,19.56-43.88,13.72-2.18-.79-11.11-6.54-13.06-8.7C13.42,57.64,11.2,43,17.93,33.25Z" transform="translate(-8.85 -20.62)"/><path class="cls-1" d="M23.52,65.57l-1.86-.36L10.18,68.15s1.4-5.87,3.11-13.62l1.86-6.81" transform="translate(-8.85 -20.62)"/><line class="cls-2" x1="29.81" y1="17.91" x2="29.81" y2="22.25"/><line class="cls-3" x1="65.43" y1="18.68" x2="65.43" y2="23.78"/><polyline class="cls-1" points="44.11 37.32 44.11 42.3 48.19 42.3 48.19 37.32"/><polyline class="cls-4" points="48.96 42.3 52.28 42.3 52.28 35.95"/><path class="cls-1" d="M40.51,55.48A37.53,37.53,0,0,0,51,57.91c1.84.15,5.87-.33,13.91-1.28A19.43,19.43,0,0,0,71.28,55a18,18,0,0,0,3.83-2.42" transform="translate(-8.85 -20.62)"/></svg>